# xmcd
#
# Track frame offsets: 
#        150
#        30218
#        48607
#        78054
#        98246
#        123909
#        145362
#        172189
#        198171
#        226917
#        247507
#        268193
#        289595
#        305848
#        326279
#
# Disc length: 4763 seconds
#
# Revision: 1
# Processed by: cddbd v1.5.2PL0 Copyright (c) Steve Scherf et al.
# Submitted via: ExactAudioCopyFreeDBPlugin 1.0
#
DISCID=c312990f
DTITLE=Cameo - Word Up! - The Ultimate Collection - CD2
DYEAR=2012
DGENRE=Funk
TTITLE0=She's Strange (Original 12" Club Mix)
TTITLE1=Talkin' Out The Side Of Your Neck
TTITLE2=Attack Me With Your Love  (Original 12" Club Mix)
TTITLE3=Single Life (Album Version)
TTITLE4=A Good-Bye
TTITLE5=I've Got Your Image
TTITLE6=Word Up! (Extended Version)
TTITLE7=Candy (Original 12" UK Mix)
TTITLE8=Back And Forth (12" Larry Blackmon Mix)
TTITLE9=She's Mine
TTITLE10=Skin I'm In (Single Edit)
TTITLE11=You Make Me Work
TTITLE12=Time Fire and Space
TTITLE13=I Want It Now
TTITLE14=Room 123 (She's Strange) (Original 12" Rap Version)
EXTD=YEAR: 2012
EXTT0=
EXTT1=
EXTT2=
EXTT3=
EXTT4=
EXTT5=
EXTT6=
EXTT7=
EXTT8=
EXTT9=
EXTT10=
EXTT11=
EXTT12=
EXTT13=
EXTT14=
PLAYORDER=
